simulation
nRows=49
nColumns=15
endheader
time  TH_x TH_y TH_z SC_y  SC_z  SC_x  AC_y  AC_z  AC_x  GH_y  GH_z  GH_yy  EL_x  PS_y
0.250057  0.000000  0.000000  0.000000  -28.245170  4.693508  15.122592  74.641224  22.557240  20.649115  56.950083  60.867675  -36.040788  13.706452  114.719557
0.250284  0.000000  0.000000  0.000000  -28.245170  4.693508  5.122592  73.204322  32.168754  23.763760  56.950083  60.867675  -36.040788  13.706452  114.719557
0.250511  0.000000  0.000000  0.000000  -28.245170  4.693508  7.344814  73.587496  30.039160  23.022161  56.950083  60.867675  -36.040788  13.706452  114.719557
0.250739  0.000000  0.000000  0.000000  -28.245170  4.693508  9.567036  73.931644  27.905581  22.311813  56.950083  60.867675  -36.040788  13.706452  114.719557
0.250966  0.000000  0.000000  0.000000  -28.245170  4.693508  11.789258  74.239971  25.768501  21.628974  56.950083  60.867675  -36.040788  13.706452  114.719557
0.251193  0.000000  0.000000  0.000000  -28.245170  4.693508  14.011481  74.515236  23.628348  20.970318  56.950083  60.867675  -36.040788  13.706452  114.719557
0.251421  0.000000  0.000000  0.000000  -28.245170  4.693508  16.233703  74.759808  21.485504  20.332864  56.950083  60.867675  -36.040788  13.706452  114.719557
0.251648  0.000000  0.000000  0.000000  -28.245170  4.693508  18.455925  74.975724  19.340313  19.713925  56.950083  60.867675  -36.040788  13.706452  114.719557
0.251875  0.000000  0.000000  0.000000  -28.245170  4.693508  20.678147  75.164722  17.193087  19.111056  56.950083  60.867675  -36.040788  13.706452  114.719557
0.252103  0.000000  0.000000  0.000000  -28.245170  4.693508  22.900369  75.328284  15.044111  18.522020  56.950083  60.867675  -36.040788  13.706452  114.719557
0.252330  0.000000  0.000000  0.000000  -28.245170  4.693508  25.122592  75.467660  12.893648  17.944751  56.950083  60.867675  -36.040788  13.706452  114.719557
0.252557  0.000000  0.000000  0.000000  -20.190732  0.417403  26.244618  66.136466  11.283593  1.504742  51.271971  51.449035  -33.493004  13.019463  117.883495
0.252785  0.000000  0.000000  0.000000  -20.190732  0.417403  16.244618  64.959228  20.391100  5.802950  51.271971  51.449035  -33.493004  13.019463  117.883495
0.253012  0.000000  0.000000  0.000000  -20.190732  0.417403  18.466840  65.288155  18.375007  4.812031  51.271971  51.449035  -33.493004  13.019463  117.883495
0.253239  0.000000  0.000000  0.000000  -20.190732  0.417403  20.689062  65.577100  16.353906  3.844045  51.271971  51.449035  -33.493004  13.019463  117.883495
0.253467  0.000000  0.000000  0.000000  -20.190732  0.417403  22.911285  65.827987  14.328477  2.895921  51.271971  51.449035  -33.493004  13.019463  117.883495
0.253694  0.000000  0.000000  0.000000  -20.190732  0.417403  25.133507  66.042452  12.299353  1.964788  51.271971  51.449035  -33.493004  13.019463  117.883495
0.253921  0.000000  0.000000  0.000000  -20.190732  0.417403  27.355729  66.221873  10.267128  1.047940  51.271971  51.449035  -33.493004  13.019463  117.883495
0.254149  0.000000  0.000000  0.000000  -20.190732  0.417403  29.577951  66.367388  8.232363  0.142809  51.271971  51.449035  -33.493004  13.019463  117.883495
0.254376  0.000000  0.000000  0.000000  -20.190732  0.417403  31.800173  66.479907  6.195593  -0.753060  51.271971  51.449035  -33.493004  13.019463  117.883495
0.254603  0.000000  0.000000  0.000000  -20.190732  0.417403  34.022396  66.560128  4.157331  -1.642036  51.271971  51.449035  -33.493004  13.019463  117.883495
0.254831  0.000000  0.000000  0.000000  -20.190732  0.417403  36.244618  66.608545  2.118077  -2.526423  51.271971  51.449035  -33.493004  13.019463  117.883495
0.255058  0.000000  0.000000  0.000000  -44.714835  -0.817806  38.655090  86.337121  19.115652  9.307283  42.333089  68.700855  -38.528607  28.882517  109.918615
0.255285  0.000000  0.000000  0.000000  -44.714835  -0.817806  28.655090  86.038907  29.093673  10.034700  42.333089  68.700855  -38.528607  28.882517  109.918615
0.255513  0.000000  0.000000  0.000000  -44.714835  -0.817806  30.877312  86.119658  26.876650  9.862644  42.333089  68.700855  -38.528607  28.882517  109.918615
0.255740  0.000000  0.000000  0.000000  -44.714835  -0.817806  33.099534  86.191591  24.659427  9.697210  42.333089  68.700855  -38.528607  28.882517  109.918615
0.255967  0.000000  0.000000  0.000000  -44.714835  -0.817806  35.321757  86.255395  22.442028  9.537555  42.333089  68.700855  -38.528607  28.882517  109.918615
0.256195  0.000000  0.000000  0.000000  -44.714835  -0.817806  37.543979  86.311658  20.224478  9.382926  42.333089  68.700855  -38.528607  28.882517  109.918615
0.256422  0.000000  0.000000  0.000000  -44.714835  -0.817806  39.766201  86.360880  18.006796  9.232647  42.333089  68.700855  -38.528607  28.882517  109.918615
0.256649  0.000000  0.000000  0.000000  -44.714835  -0.817806  41.988423  86.403483  15.789001  9.086105  42.333089  68.700855  -38.528607  28.882517  109.918615
0.256877  0.000000  0.000000  0.000000  -44.714835  -0.817806  44.210645  86.439822  13.571110  8.942737  42.333089  68.700855  -38.528607  28.882517  109.918615
0.257104  0.000000  0.000000  0.000000  -44.714835  -0.817806  46.432868  86.470193  11.353139  8.802025  42.333089  68.700855  -38.528607  28.882517  109.918615
0.257331  0.000000  0.000000  0.000000  -44.714835  -0.817806  48.655090  86.494836  9.135102  8.663485  42.333089  68.700855  -38.528607  28.882517  109.918615
0.257559  0.000000  0.000000  0.000000  -30.841997  4.542358  48.113842  66.506900  7.326484  -6.782183  41.582696  51.430644  -29.997085  21.609328  122.409853
0.257786  0.000000  0.000000  0.000000  -30.841997  4.542358  38.113842  65.650301  16.471577  -2.642668  41.582696  51.430644  -29.997085  21.609328  122.409853
0.258013  0.000000  0.000000  0.000000  -30.841997  4.542358  40.336065  65.902476  14.444971  -3.588616  41.582696  51.430644  -29.997085  21.609328  122.409853
0.258241  0.000000  0.000000  0.000000  -30.841997  4.542358  42.558287  66.118242  12.414661  -4.517461  41.582696  51.430644  -29.997085  21.609328  122.409853
0.258468  0.000000  0.000000  0.000000  -30.841997  4.542358  44.780509  66.298990  10.381238  -5.431910  41.582696  51.430644  -29.997085  21.609328  122.409853
0.258695  0.000000  0.000000  0.000000  -30.841997  4.542358  47.002731  66.445867  8.345262  -6.334534  41.582696  51.430644  -29.997085  21.609328  122.409853
0.258922  0.000000  0.000000  0.000000  -30.841997  4.542358  49.224954  66.559794  6.307266  -7.227788  41.582696  51.430644  -29.997085  21.609328  122.409853
0.259150  0.000000  0.000000  0.000000  -30.841997  4.542358  51.447176  66.641480  4.267760  -8.114041  41.582696  51.430644  -29.997085  21.609328  122.409853
0.259377  0.000000  0.000000  0.000000  -30.841997  4.542358  53.669398  66.691428  2.227243  -8.995595  41.582696  51.430644  -29.997085  21.609328  122.409853
0.259604  0.000000  0.000000  0.000000  -30.841997  4.542358  55.891620  66.709946  0.186201  -9.874709  41.582696  51.430644  -29.997085  21.609328  122.409853
0.259832  0.000000  0.000000  0.000000  -30.841997  4.542358  58.113842  66.697145  -1.854886  -10.753620  41.582696  51.430644  -29.997085  21.609328  122.409853
0.260059  0.000000  0.000000  0.000000  -16.539563  -2.294402  32.481140  83.710985  20.949229  13.907119  63.847552  61.410197  -42.929745  21.067322  119.792454
0.260286  0.000000  0.000000  0.000000  -16.539563  -2.294402  22.481140  83.153779  30.884051  15.177177  63.847552  61.410197  -42.929745  21.067322  119.792454
0.260514  0.000000  0.000000  0.000000  -16.539563  -2.294402  24.703362  83.303736  28.677323  14.875314  63.847552  61.410197  -42.929745  21.067322  119.792454
0.260741  0.000000  0.000000  0.000000  -16.539563  -2.294402  26.925584  83.437721  26.469954  14.585916  63.847552  61.410197  -42.929745  21.067322  119.792454
0.260968  0.000000  0.000000  0.000000  -16.539563  -2.294402  29.147807  83.557051  24.262023  14.307418  63.847552  61.410197  -42.929745  21.067322  119.792454
